<svg xmlns="http://www.w3.org/2000/svg" width="320" height="320" viewBox="0 0 320 320" shape-rendering="crispEdges"><rect x="0" y="0" width="320" height="320" fill="#d5d7e1" shape-rendering="crispEdges"/><rect x="90" y="210" width="140" height="10" fill="#616161" shape-rendering="crispEdges"/><rect x="90" y="220" width="10" height="10" fill="#616161" shape-rendering="crispEdges"/><rect x="100" y="220" width="120" height="10" fill="#949494" shape-rendering="crispEdges"/><rect x="220" y="220" width="10" height="10" fill="#616161" shape-rendering="crispEdges"/><rect x="90" y="230" width="10" height="10" fill="#616161" shape-rendering="crispEdges"/><rect x="100" y="230" width="120" height="10" fill="#949494" shape-rendering="crispEdges"/><rect x="220" y="230" width="10" height="10" fill="#616161" shape-rendering="crispEdges"/><rect x="90" y="240" width="10" height="10" fill="#616161" shape-rendering="crispEdges"/><rect x="100" y="240" width="10" height="10" fill="#949494" shape-rendering="crispEdges"/><rect x="110" y="240" width="10" height="10" fill="#616161" shape-rendering="crispEdges"/><rect x="120" y="240" width="100" height="10" fill="#949494" shape-rendering="crispEdges"/><rect x="220" y="240" width="10" height="10" fill="#616161" shape-rendering="crispEdges"/><rect x="90" y="250" width="20" height="10" fill="#616161" shape-rendering="crispEdges"/><rect x="120" y="250" width="10" height="10" fill="#616161" shape-rendering="crispEdges"/><rect x="130" y="250" width="90" height="10" fill="#949494" shape-rendering="crispEdges"/><rect x="220" y="250" width="10" height="10" fill="#616161" shape-rendering="crispEdges"/><rect x="90" y="260" width="20" height="10" fill="#616161" shape-rendering="crispEdges"/><rect x="120" y="260" width="10" height="10" fill="#616161" shape-rendering="crispEdges"/><rect x="130" y="260" width="90" height="10" fill="#949494" shape-rendering="crispEdges"/><rect x="220" y="260" width="10" height="10" fill="#616161" shape-rendering="crispEdges"/><rect x="90" y="270" width="20" height="10" fill="#616161" shape-rendering="crispEdges"/><rect x="120" y="270" width="10" height="10" fill="#616161" shape-rendering="crispEdges"/><rect x="130" y="270" width="90" height="10" fill="#949494" shape-rendering="crispEdges"/><rect x="220" y="270" width="10" height="10" fill="#616161" shape-rendering="crispEdges"/><rect x="90" y="280" width="20" height="10" fill="#616161" shape-rendering="crispEdges"/><rect x="120" y="280" width="10" height="10" fill="#616161" shape-rendering="crispEdges"/><rect x="130" y="280" width="90" height="10" fill="#949494" shape-rendering="crispEdges"/><rect x="220" y="280" width="10" height="10" fill="#616161" shape-rendering="crispEdges"/><rect x="90" y="290" width="20" height="10" fill="#616161" shape-rendering="crispEdges"/><rect x="120" y="290" width="10" height="10" fill="#616161" shape-rendering="crispEdges"/><rect x="130" y="290" width="90" height="10" fill="#949494" shape-rendering="crispEdges"/><rect x="220" y="290" width="10" height="10" fill="#616161" shape-rendering="crispEdges"/><rect x="90" y="300" width="20" height="10" fill="#616161" shape-rendering="crispEdges"/><rect x="120" y="300" width="10" height="10" fill="#616161" shape-rendering="crispEdges"/><rect x="130" y="300" width="90" height="10" fill="#949494" shape-rendering="crispEdges"/><rect x="220" y="300" width="10" height="10" fill="#616161" shape-rendering="crispEdges"/><rect x="90" y="310" width="20" height="10" fill="#949494" shape-rendering="crispEdges"/><rect x="120" y="310" width="110" height="10" fill="#949494" shape-rendering="crispEdges"/><rect x="160" y="30" width="30" height="10" fill="#262527" shape-rendering="crispEdges"/><rect x="150" y="40" width="10" height="10" fill="#262527" shape-rendering="crispEdges"/><rect x="160" y="40" width="30" height="10" fill="#636270" shape-rendering="crispEdges"/><rect x="190" y="40" width="20" height="10" fill="#262527" shape-rendering="crispEdges"/><rect x="140" y="50" width="10" height="10" fill="#262527" shape-rendering="crispEdges"/><rect x="150" y="50" width="10" height="10" fill="#636270" shape-rendering="crispEdges"/><rect x="160" y="50" width="10" height="10" fill="#4b494e" shape-rendering="crispEdges"/><rect x="170" y="50" width="40" height="10" fill="#636270" shape-rendering="crispEdges"/><rect x="210" y="50" width="20" height="10" fill="#262527" shape-rendering="crispEdges"/><rect x="130" y="60" width="10" height="10" fill="#262527" shape-rendering="crispEdges"/><rect x="140" y="60" width="10" height="10" fill="#4b494e" shape-rendering="crispEdges"/><rect x="150" y="60" width="20" height="10" fill="#636270" shape-rendering="crispEdges"/><rect x="170" y="60" width="10" height="10" fill="#4b494e" shape-rendering="crispEdges"/><rect x="180" y="60" width="50" height="10" fill="#636270" shape-rendering="crispEdges"/><rect x="230" y="60" width="20" height="10" fill="#262527" shape-rendering="crispEdges"/><rect x="80" y="70" width="50" height="10" fill="#262527" shape-rendering="crispEdges"/><rect x="130" y="70" width="50" height="10" fill="#636270" shape-rendering="crispEdges"/><rect x="180" y="70" width="10" height="10" fill="#4b494e" shape-rendering="crispEdges"/><rect x="190" y="70" width="60" height="10" fill="#636270" shape-rendering="crispEdges"/><rect x="250" y="70" width="10" height="10" fill="#262527" shape-rendering="crispEdges"/><rect x="70" y="80" width="10" height="10" fill="#262527" shape-rendering="crispEdges"/><rect x="80" y="80" width="180" height="10" fill="#636270" shape-rendering="crispEdges"/><rect x="260" y="80" width="10" height="10" fill="#262527" shape-rendering="crispEdges"/><rect x="60" y="90" width="10" height="10" fill="#262527" shape-rendering="crispEdges"/><rect x="70" y="90" width="50" height="10" fill="#636270" shape-rendering="crispEdges"/><rect x="120" y="90" width="40" height="10" fill="#4b494e" shape-rendering="crispEdges"/><rect x="160" y="90" width="100" height="10" fill="#636270" shape-rendering="crispEdges"/><rect x="260" y="90" width="10" height="10" fill="#262527" shape-rendering="crispEdges"/><rect x="60" y="100" width="10" height="10" fill="#262527" shape-rendering="crispEdges"/><rect x="70" y="100" width="90" height="10" fill="#636270" shape-rendering="crispEdges"/><rect x="160" y="100" width="10" height="10" fill="#4b494e" shape-rendering="crispEdges"/><rect x="170" y="100" width="90" height="10" fill="#636270" shape-rendering="crispEdges"/><rect x="260" y="100" width="10" height="10" fill="#262527" shape-rendering="crispEdges"/><rect x="60" y="110" width="10" height="10" fill="#262527" shape-rendering="crispEdges"/><rect x="70" y="110" width="20" height="10" fill="#636270" shape-rendering="crispEdges"/><rect x="90" y="110" width="10" height="10" fill="#4b494e" shape-rendering="crispEdges"/><rect x="100" y="110" width="160" height="10" fill="#636270" shape-rendering="crispEdges"/><rect x="260" y="110" width="10" height="10" fill="#262527" shape-rendering="crispEdges"/><rect x="60" y="120" width="10" height="10" fill="#262527" shape-rendering="crispEdges"/><rect x="70" y="120" width="70" height="10" fill="#636270" shape-rendering="crispEdges"/><rect x="140" y="120" width="20" height="10" fill="#4b494e" shape-rendering="crispEdges"/><rect x="160" y="120" width="10" height="10" fill="#636270" shape-rendering="crispEdges"/><rect x="170" y="120" width="70" height="10" fill="#4b494e" shape-rendering="crispEdges"/><rect x="240" y="120" width="20" height="10" fill="#636270" shape-rendering="crispEdges"/><rect x="260" y="120" width="10" height="10" fill="#262527" shape-rendering="crispEdges"/><rect x="60" y="130" width="10" height="10" fill="#262527" shape-rendering="crispEdges"/><rect x="70" y="130" width="50" height="10" fill="#636270" shape-rendering="crispEdges"/><rect x="120" y="130" width="20" height="10" fill="#4b494e" shape-rendering="crispEdges"/><rect x="140" y="130" width="120" height="10" fill="#636270" shape-rendering="crispEdges"/><rect x="260" y="130" width="10" height="10" fill="#262527" shape-rendering="crispEdges"/><rect x="50" y="140" width="10" height="10" fill="#262527" shape-rendering="crispEdges"/><rect x="60" y="140" width="200" height="10" fill="#636270" shape-rendering="crispEdges"/><rect x="260" y="140" width="10" height="10" fill="#262527" shape-rendering="crispEdges"/><rect x="50" y="150" width="10" height="10" fill="#262527" shape-rendering="crispEdges"/><rect x="60" y="150" width="40" height="10" fill="#636270" shape-rendering="crispEdges"/><rect x="100" y="150" width="10" height="10" fill="#4b494e" shape-rendering="crispEdges"/><rect x="110" y="150" width="140" height="10" fill="#636270" shape-rendering="crispEdges"/><rect x="250" y="150" width="20" height="10" fill="#262527" shape-rendering="crispEdges"/><rect x="50" y="160" width="10" height="10" fill="#262527" shape-rendering="crispEdges"/><rect x="60" y="160" width="40" height="10" fill="#636270" shape-rendering="crispEdges"/><rect x="100" y="160" width="10" height="10" fill="#4b494e" shape-rendering="crispEdges"/><rect x="110" y="160" width="80" height="10" fill="#636270" shape-rendering="crispEdges"/><rect x="190" y="160" width="20" height="10" fill="#4b494e" shape-rendering="crispEdges"/><rect x="210" y="160" width="10" height="10" fill="#636270" shape-rendering="crispEdges"/><rect x="220" y="160" width="20" height="10" fill="#4b494e" shape-rendering="crispEdges"/><rect x="240" y="160" width="10" height="10" fill="#262527" shape-rendering="crispEdges"/><rect x="60" y="170" width="10" height="10" fill="#262527" shape-rendering="crispEdges"/><rect x="70" y="170" width="40" height="10" fill="#636270" shape-rendering="crispEdges"/><rect x="110" y="170" width="10" height="10" fill="#4b494e" shape-rendering="crispEdges"/><rect x="120" y="170" width="40" height="10" fill="#636270" shape-rendering="crispEdges"/><rect x="160" y="170" width="30" height="10" fill="#4b494e" shape-rendering="crispEdges"/><rect x="190" y="170" width="20" height="10" fill="#636270" shape-rendering="crispEdges"/><rect x="210" y="170" width="10" height="10" fill="#4b494e" shape-rendering="crispEdges"/><rect x="220" y="170" width="20" height="10" fill="#636270" shape-rendering="crispEdges"/><rect x="240" y="170" width="10" height="10" fill="#262527" shape-rendering="crispEdges"/><rect x="70" y="180" width="10" height="10" fill="#262527" shape-rendering="crispEdges"/><rect x="80" y="180" width="50" height="10" fill="#636270" shape-rendering="crispEdges"/><rect x="130" y="180" width="50" height="10" fill="#cccccc" shape-rendering="crispEdges"/><rect x="180" y="180" width="20" height="10" fill="#636270" shape-rendering="crispEdges"/><rect x="200" y="180" width="10" height="10" fill="#4b494e" shape-rendering="crispEdges"/><rect x="210" y="180" width="20" height="10" fill="#636270" shape-rendering="crispEdges"/><rect x="230" y="180" width="10" height="10" fill="#262527" shape-rendering="crispEdges"/><rect x="80" y="190" width="10" height="10" fill="#262527" shape-rendering="crispEdges"/><rect x="90" y="190" width="30" height="10" fill="#4b494e" shape-rendering="crispEdges"/><rect x="120" y="190" width="10" height="10" fill="#cccccc" shape-rendering="crispEdges"/><rect x="130" y="190" width="40" height="10" fill="#636270" shape-rendering="crispEdges"/><rect x="170" y="190" width="10" height="10" fill="#4b494e" shape-rendering="crispEdges"/><rect x="180" y="190" width="10" height="10" fill="#cccccc" shape-rendering="crispEdges"/><rect x="190" y="190" width="10" height="10" fill="#4b494e" shape-rendering="crispEdges"/><rect x="200" y="190" width="30" height="10" fill="#636270" shape-rendering="crispEdges"/><rect x="230" y="190" width="10" height="10" fill="#262527" shape-rendering="crispEdges"/><rect x="90" y="200" width="10" height="10" fill="#262527" shape-rendering="crispEdges"/><rect x="100" y="200" width="120" height="10" fill="#323138" shape-rendering="crispEdges"/><rect x="220" y="200" width="10" height="10" fill="#262527" shape-rendering="crispEdges"/><rect x="70" y="90" width="180" height="10" fill="#000000" shape-rendering="crispEdges"/><rect x="60" y="100" width="20" height="10" fill="#000000" shape-rendering="crispEdges"/><rect x="80" y="100" width="80" height="10" fill="#004e4e" shape-rendering="crispEdges"/><rect x="160" y="100" width="10" height="10" fill="#00ffff" shape-rendering="crispEdges"/><rect x="170" y="100" width="70" height="10" fill="#004e4e" shape-rendering="crispEdges"/><rect x="240" y="100" width="20" height="10" fill="#000000" shape-rendering="crispEdges"/><rect x="50" y="110" width="30" height="10" fill="#000000" shape-rendering="crispEdges"/><rect x="80" y="110" width="70" height="10" fill="#004e4e" shape-rendering="crispEdges"/><rect x="150" y="110" width="30" height="10" fill="#00ffff" shape-rendering="crispEdges"/><rect x="180" y="110" width="60" height="10" fill="#004e4e" shape-rendering="crispEdges"/><rect x="240" y="110" width="30" height="10" fill="#000000" shape-rendering="crispEdges"/><rect x="50" y="120" width="30" height="10" fill="#000000" shape-rendering="crispEdges"/><rect x="80" y="120" width="70" height="10" fill="#004e4e" shape-rendering="crispEdges"/><rect x="150" y="120" width="30" height="10" fill="#00ffff" shape-rendering="crispEdges"/><rect x="180" y="120" width="60" height="10" fill="#004e4e" shape-rendering="crispEdges"/><rect x="240" y="120" width="30" height="10" fill="#000000" shape-rendering="crispEdges"/><rect x="60" y="130" width="20" height="10" fill="#000000" shape-rendering="crispEdges"/><rect x="80" y="130" width="80" height="10" fill="#004e4e" shape-rendering="crispEdges"/><rect x="160" y="130" width="10" height="10" fill="#00ffff" shape-rendering="crispEdges"/><rect x="170" y="130" width="70" height="10" fill="#004e4e" shape-rendering="crispEdges"/><rect x="240" y="130" width="20" height="10" fill="#000000" shape-rendering="crispEdges"/><rect x="70" y="140" width="180" height="10" fill="#000000" shape-rendering="crispEdges"/><rect x="150" y="0" width="20" height="10" fill="#8c919b" shape-rendering="crispEdges"/><rect x="150" y="10" width="20" height="10" fill="#8c919b" shape-rendering="crispEdges"/><rect x="150" y="20" width="20" height="10" fill="#8c919b" shape-rendering="crispEdges"/><rect x="120" y="30" width="30" height="10" fill="#8c919b" shape-rendering="crispEdges"/><rect x="150" y="30" width="20" height="10" fill="#525960" shape-rendering="crispEdges"/><rect x="170" y="30" width="30" height="10" fill="#8c919b" shape-rendering="crispEdges"/><rect x="120" y="40" width="30" height="10" fill="#8c919b" shape-rendering="crispEdges"/><rect x="150" y="40" width="20" height="10" fill="#525960" shape-rendering="crispEdges"/><rect x="170" y="40" width="30" height="10" fill="#8c919b" shape-rendering="crispEdges"/><rect x="150" y="50" width="20" height="10" fill="#8c919b" shape-rendering="crispEdges"/><rect x="150" y="60" width="20" height="10" fill="#8c919b" shape-rendering="crispEdges"/><rect x="160" y="230" width="30" height="10" fill="#767239" shape-rendering="crispEdges"/><rect x="150" y="240" width="10" height="10" fill="#767239" shape-rendering="crispEdges"/><rect x="190" y="240" width="10" height="10" fill="#767239" shape-rendering="crispEdges"/><rect x="140" y="250" width="10" height="10" fill="#767239" shape-rendering="crispEdges"/><rect x="150" y="250" width="10" height="10" fill="#ece471" shape-rendering="crispEdges"/><rect x="160" y="250" width="10" height="10" fill="#767239" shape-rendering="crispEdges"/><rect x="190" y="250" width="10" height="10" fill="#767239" shape-rendering="crispEdges"/><rect x="130" y="260" width="10" height="10" fill="#767239" shape-rendering="crispEdges"/><rect x="150" y="260" width="10" height="10" fill="#767239" shape-rendering="crispEdges"/><rect x="170" y="260" width="10" height="10" fill="#767239" shape-rendering="crispEdges"/><rect x="190" y="260" width="10" height="10" fill="#767239" shape-rendering="crispEdges"/><rect x="130" y="270" width="10" height="10" fill="#767239" shape-rendering="crispEdges"/><rect x="160" y="270" width="10" height="10" fill="#767239" shape-rendering="crispEdges"/><rect x="170" y="270" width="10" height="10" fill="#ece471" shape-rendering="crispEdges"/><rect x="180" y="270" width="10" height="10" fill="#767239" shape-rendering="crispEdges"/><rect x="130" y="280" width="10" height="10" fill="#767239" shape-rendering="crispEdges"/><rect x="170" y="280" width="10" height="10" fill="#767239" shape-rendering="crispEdges"/><rect x="140" y="290" width="30" height="10" fill="#767239" shape-rendering="crispEdges"/></svg>